<?xml version="1.0" encoding="UTF-8" standalone="no"?>
<!DOCTYPE svg PUBLIC "-//W3C//DTD SVG 1.1//EN" "http://www.w3.org/Graphics/SVG/1.1/DTD/svg11.dtd">
<svg x="0px" y="0px" width="600" height="600" viewBox="0 0 600 600" preserveAspectRatio="xMidYMid meet" 
     version="1.1" xmlns="http://www.w3.org/2000/svg" xmlns:xlink="http://www.w3.org/1999/xlink">
  <path style="fill:#ffffff;fill-opacity:1;stroke:#000000;stroke-width:15;stroke-miterlimit:4;stroke-dasharray:none;stroke-opacity:1"
        d="m 523.874,487.687 c 21.037,0 38.25,-17.213 38.25,-38.25 V 239.062 H 7.5 v 210.376 c 0,21.037 17.212,38.25 38.25,38.25 z"/>
  <path style="fill:#ffffff;fill-opacity:1;stroke:#000000;stroke-width:15;stroke-miterlimit:4;stroke-dasharray:none;stroke-opacity:1"
        d="m 523.875,136.7815 h -229.5 l -38.25,-76.5 H 45.75 c -21.038,0 -38.25,17.212 -38.25,38.25 v 114.75 h 554.625 v -38.25 c 0,-21.038 -17.213,-38.25 -38.25,-38.25 z"/>
  <path style="fill:#ffffff;fill-opacity:1;stroke:#000000;stroke-width:15;stroke-miterlimit:4;stroke-dasharray:none;stroke-opacity:1"
        d="M 588.65892,459.97331 468.24846,580.38149 c -2.58386,2.58729 -6.15555,4.19135 -10.10909,4.19135 -3.95354,0 -7.52522,-1.60406 -10.12395,-4.19135 L 327.60725,459.97331 c -3.96612,-3.96612 -5.37124,-10.08623 -3.09035,-15.58552 2.26831,-5.50272 7.6064,-8.82744 13.2143,-8.82744 h 33.39819 v -159.7161 c 0,-3.64943 1.40169,-7.31371 4.19135,-10.09766 2.79538,-2.79766 6.44823,-4.19135 10.10909,-4.19135 h 145.40651 c 3.662,0 7.32629,1.39369 10.12052,4.19135 2.78623,2.78395 4.19135,6.44823 4.19135,10.09766 v 159.7161 h 33.39819 c 5.61934,0 10.92884,3.32472 13.2143,8.82744 2.28089,5.49929 0.86777,11.6194 -3.10178,15.58552 z"/>
</svg>
