<?xml version="1.0" encoding="UTF-8" standalone="no"?>
<!-- Generator: Adobe Illustrator 16.0.0, SVG Export Plug-In . SVG Version: 6.00 Build 0)  -->

<svg
   xmlns:dc="http://purl.org/dc/elements/1.1/"
   xmlns:cc="http://creativecommons.org/ns#"
   xmlns:rdf="http://www.w3.org/1999/02/22-rdf-syntax-ns#"
   xmlns:svg="http://www.w3.org/2000/svg"
   xmlns="http://www.w3.org/2000/svg"
   xmlns:sodipodi="http://sodipodi.sourceforge.net/DTD/sodipodi-0.dtd"
   xmlns:inkscape="http://www.inkscape.org/namespaces/inkscape"
   version="1.1"
   id="Capa_1"
   x="0px"
   y="0px"
   width="600"
   height="600"
   viewBox="0 0 600 600"
   xml:space="preserve"
   sodipodi:docname="import.svg"
   inkscape:version="0.92.5 (2060ec1f9f, 2020-04-08)"><metadata
   id="metadata988"><rdf:RDF><cc:Work
       rdf:about=""><dc:format>image/svg+xml</dc:format><dc:type
         rdf:resource="http://purl.org/dc/dcmitype/StillImage" /><dc:title></dc:title></cc:Work></rdf:RDF></metadata><defs
   id="defs986">
	
</defs><sodipodi:namedview
   pagecolor="#ffffff"
   bordercolor="#666666"
   borderopacity="1"
   objecttolerance="10"
   gridtolerance="10"
   guidetolerance="10"
   inkscape:pageopacity="0"
   inkscape:pageshadow="2"
   inkscape:window-width="1848"
   inkscape:window-height="1016"
   id="namedview984"
   showgrid="false"
   inkscape:pagecheckerboard="true"
   inkscape:zoom="0.63299738"
   inkscape:cx="375.47426"
   inkscape:cy="411.93273"
   inkscape:window-x="1920"
   inkscape:window-y="27"
   inkscape:window-maximized="1"
   inkscape:current-layer="Capa_1" />

<g
   id="g953"
   transform="translate(0,45.375)">
</g>
<g
   id="g955"
   transform="translate(0,45.375)">
</g>
<g
   id="g957"
   transform="translate(0,45.375)">
</g>
<g
   id="g959"
   transform="translate(0,45.375)">
</g>
<g
   id="g961"
   transform="translate(0,45.375)">
</g>
<g
   id="g963"
   transform="translate(0,45.375)">
</g>
<g
   id="g965"
   transform="translate(0,45.375)">
</g>
<g
   id="g967"
   transform="translate(0,45.375)">
</g>
<g
   id="g969"
   transform="translate(0,45.375)">
</g>
<g
   id="g971"
   transform="translate(0,45.375)">
</g>
<g
   id="g973"
   transform="translate(0,45.375)">
</g>
<g
   id="g975"
   transform="translate(0,45.375)">
</g>
<g
   id="g977"
   transform="translate(0,45.375)">
</g>
<g
   id="g979"
   transform="translate(0,45.375)">
</g>
<g
   id="g981"
   transform="translate(0,45.375)">
</g>
<g
   id="g2399"
   transform="translate(-0.08253709)"><g
     style="fill:#ffffff;fill-opacity:1;stroke-width:10;stroke-miterlimit:4;stroke-dasharray:none"
     transform="matrix(0.93866457,0,0,0.93866457,7.039987,7.205076)"
     id="g949">
		<path
   style="fill:#ffffff;fill-opacity:1;stroke:#000000;stroke-width:15;stroke-miterlimit:4;stroke-dasharray:none;stroke-opacity:1"
   sodipodi:nodetypes="csccscc"
   d="m 516.374,487.687 c 21.037,0 38.25,-17.213 38.25,-38.25 V 239.062 H 0 v 210.376 c 0,21.037 17.212,38.25 38.25,38.25 z"
   id="path945"
   inkscape:connector-curvature="0" />
		<path
   style="fill:#ffffff;fill-opacity:1;stroke:#000000;stroke-width:15;stroke-miterlimit:4;stroke-dasharray:none;stroke-opacity:1"
   d="m 516.375,136.7815 h -229.5 l -38.25,-76.5 H 38.25 C 17.212,60.2815 0,77.4935 0,98.5315 v 114.75 h 554.625 v -38.25 c 0,-21.038 -17.213,-38.25 -38.25,-38.25 z"
   id="path947"
   inkscape:connector-curvature="0" />
	</g><path
     style="fill:#ffffff;fill-opacity:1;stroke:#000000;stroke-width:14.63427258;stroke-miterlimit:4;stroke-dasharray:none;stroke-opacity:1"
     inkscape:connector-curvature="0"
     id="path923-3"
     d="M 588.65892,459.97331 468.24846,580.38149 c -2.58386,2.58729 -6.15555,4.19135 -10.10909,4.19135 -3.95354,0 -7.52522,-1.60406 -10.12395,-4.19135 L 327.60725,459.97331 c -3.96612,-3.96612 -5.37124,-10.08623 -3.09035,-15.58552 2.26831,-5.50272 7.6064,-8.82744 13.2143,-8.82744 h 33.39819 v -159.7161 c 0,-3.64943 1.40169,-7.31371 4.19135,-10.09766 2.79538,-2.79766 6.44823,-4.19135 10.10909,-4.19135 h 145.40651 c 3.662,0 7.32629,1.39369 10.12052,4.19135 2.78623,2.78395 4.19135,6.44823 4.19135,10.09766 v 159.7161 h 33.39819 c 5.61934,0 10.92884,3.32472 13.2143,8.82744 2.28089,5.49929 0.86777,11.6194 -3.10178,15.58552 z" /></g></svg>