<?xml version="1.0" encoding="UTF-8" standalone="no"?>
<!DOCTYPE svg PUBLIC "-//W3C//DTD SVG 1.1//EN" "http://www.w3.org/Graphics/SVG/1.1/DTD/svg11.dtd">
<svg x="0px" y="0px" width="600" height="600" viewBox="0 0 600 600" preserveAspectRatio="xMidYMid meet" 
     version="1.1" xmlns="http://www.w3.org/2000/svg" xmlns:xlink="http://www.w3.org/1999/xlink">
  <path style="fill:#ffffff;fill-opacity:1;stroke:#000000;stroke-width:15.00000191;stroke-miterlimit:4;stroke-dasharray:none;stroke-opacity:1"
        d="m 300.00002,215.24834 c 15.60152,0 28.24918,-12.64766 28.24918,-28.24918 0,-15.60152 -12.64766,-28.24918 -28.24918,-28.24918 -15.60152,0 -28.24918,12.64766 -28.24918,28.24918 0,15.60152 12.64766,28.24918 28.24918,28.24918 z m 36.52165,209.329 c -3.44411,-4.46994 -8.27247,-23.88224 -8.27247,-39.8257 V 243.49751 l -84.89997,-0.0206 v 9.03874 c 9.77619,0.58501 16.3884,3.11453 19.8284,7.58035 3.43587,4.47406 9.45484,11.60536 8.57321,39.89986 v 84.75166 c 0,15.93934 -4.86131,34.96851 -7.7575,38.65981 -4.52761,5.63995 -11.40761,8.55676 -20.64411,8.74624 v 8.75041 h 113.54464 v -8.75044 c -10.14285,-0.58086 -16.9322,-3.10629 -20.3722,-7.57622 z M 469.4992,17.49998 H 130.50083 c -62.410198,0 -113.000827,50.59062 -113.000827,112.99671 v 339.00249 c 0,62.41018 50.590629,113.00084 113.000827,113.00084 H 469.4992 c 62.41019,0 113.0008,-50.59066 113.0008,-113.00084 V 130.49669 C 582.5,68.0906 531.90939,17.49998 469.4992,17.49998 Z m 56.50246,423.75 c 0,46.80464 -37.94298,84.7475 -84.74757,84.7475 H 158.75001 c -46.80868,0 -84.751652,-37.94698 -84.751652,-84.7475 v -282.5 c 0,-46.80457 37.942972,-84.75165 84.751652,-84.75165 h 282.49996 c 46.80459,0 84.74762,37.94297 84.74762,84.75165 v 282.5 z"/>
</svg>
