<?xml version="1.0" encoding="UTF-8" standalone="no"?>
<svg
   xmlns:dc="http://purl.org/dc/elements/1.1/"
   xmlns:cc="http://creativecommons.org/ns#"
   xmlns:rdf="http://www.w3.org/1999/02/22-rdf-syntax-ns#"
   xmlns:svg="http://www.w3.org/2000/svg"
   xmlns="http://www.w3.org/2000/svg"
   xmlns:sodipodi="http://sodipodi.sourceforge.net/DTD/sodipodi-0.dtd"
   xmlns:inkscape="http://www.inkscape.org/namespaces/inkscape"
   width="600"
   height="600"
   viewBox="0 0 600 600"
   version="1.1"
   id="svg2827"
   sodipodi:docname="process.svg"
   inkscape:version="0.92.5 (2060ec1f9f, 2020-04-08)">
  <metadata
     id="metadata2833">
    <rdf:RDF>
      <cc:Work
         rdf:about="">
        <dc:format>image/svg+xml</dc:format>
        <dc:type
           rdf:resource="http://purl.org/dc/dcmitype/StillImage" />
        <dc:title></dc:title>
      </cc:Work>
    </rdf:RDF>
  </metadata>
  <defs
     id="defs2831" />
  <sodipodi:namedview
     pagecolor="#ffffff"
     bordercolor="#666666"
     borderopacity="1"
     objecttolerance="10"
     gridtolerance="10"
     guidetolerance="10"
     inkscape:pageopacity="0"
     inkscape:pageshadow="2"
     inkscape:window-width="1848"
     inkscape:window-height="1016"
     id="namedview2829"
     showgrid="false"
     inkscape:pagecheckerboard="true"
     inkscape:zoom="0.57866747"
     inkscape:cx="221.57556"
     inkscape:cy="123.18875"
     inkscape:window-x="1920"
     inkscape:window-y="27"
     inkscape:window-maximized="1"
     inkscape:current-layer="svg2827" />
  <path
     d="M 582.50012,331.34396 V 266.63384 L 504.20723,240.74979 486.0465,196.66602 521.56081,122.24938 475.95722,76.547855 402.91075,113.35173 358.92145,95.152021 331.07501,17.49987 H 266.50356 L 241.07855,95.960891 196.28209,114.16062 122.02491,78.570047 76.421329,124.27157 113.14635,197.47488 94.985623,241.55866 17.499876,269.06047 v 64.30567 l 78.292891,25.88407 18.160723,44.08376 -35.514301,74.41664 45.603591,45.70153 73.04646,-36.80389 43.98931,18.19972 27.84643,77.65216 h 64.1679 l 25.425,-78.46103 44.79644,-18.19974 74.25717,35.59058 45.6036,-45.70152 -37.12859,-73.20332 18.96787,-44.08378 z m -282.50013,90.18973 c -66.99289,0 -121.07148,-54.19473 -121.07148,-121.33147 0,-67.13677 54.07859,-121.33148 121.07148,-121.33148 66.9929,0 121.07148,54.19471 121.07148,121.33148 0,67.13674 -54.07858,121.33147 -121.07148,121.33147 z"
     id="path2825"
     inkscape:connector-curvature="0"
     style="fill:#ffffff;fill-opacity:1;fill-rule:evenodd;stroke:#000000;stroke-width:15;stroke-miterlimit:4;stroke-dasharray:none;stroke-opacity:1;stroke-linejoin:round"
     sodipodi:nodetypes="cccccccccccccccccccccccccccccccccsssss" />
  <path
     style="fill:#ffffff;fill-opacity:1;stroke:#000000;stroke-width:15;stroke-linecap:butt;stroke-linejoin:round;stroke-miterlimit:4;stroke-dasharray:none;stroke-opacity:1;paint-order:fill markers stroke"
     d="M 253.35281,380.00078 383.91661,300 253.35281,219.99921 Z"
     id="path2839"
     inkscape:connector-curvature="0"
     sodipodi:nodetypes="cccc" />
</svg>
