<?xml version="1.0" encoding="UTF-8" standalone="no"?>
<!-- Generator: Adobe Illustrator 19.0.0, SVG Export Plug-In . SVG Version: 6.00 Build 0)  -->

<svg
   xmlns:dc="http://purl.org/dc/elements/1.1/"
   xmlns:cc="http://creativecommons.org/ns#"
   xmlns:rdf="http://www.w3.org/1999/02/22-rdf-syntax-ns#"
   xmlns:svg="http://www.w3.org/2000/svg"
   xmlns="http://www.w3.org/2000/svg"
   xmlns:sodipodi="http://sodipodi.sourceforge.net/DTD/sodipodi-0.dtd"
   xmlns:inkscape="http://www.inkscape.org/namespaces/inkscape"
   version="1.1"
   id="Layer_1"
   x="0px"
   y="0px"
   viewBox="0 0 600 600"
   xml:space="preserve"
   sodipodi:docname="save.svg"
   width="600"
   height="600"
   inkscape:version="0.92.5 (2060ec1f9f, 2020-04-08)"><metadata
   id="metadata966"><rdf:RDF><cc:Work
       rdf:about=""><dc:format>image/svg+xml</dc:format><dc:type
         rdf:resource="http://purl.org/dc/dcmitype/StillImage" /><dc:title /></cc:Work></rdf:RDF></metadata><defs
   id="defs964">
	
</defs><sodipodi:namedview
   pagecolor="#ffffff"
   bordercolor="#666666"
   borderopacity="1"
   objecttolerance="10"
   gridtolerance="10"
   guidetolerance="10"
   inkscape:pageopacity="0"
   inkscape:pageshadow="2"
   inkscape:window-width="1848"
   inkscape:window-height="1016"
   id="namedview962"
   showgrid="false"
   fit-margin-top="0"
   fit-margin-left="0"
   fit-margin-right="0"
   fit-margin-bottom="0"
   inkscape:pagecheckerboard="true"
   inkscape:zoom="0.48486005"
   inkscape:cx="219.02399"
   inkscape:cy="498.05534"
   inkscape:window-x="1920"
   inkscape:window-y="27"
   inkscape:window-maximized="1"
   inkscape:current-layer="Layer_1"
   showguides="true"
   inkscape:guide-bbox="true" />

<g
   id="g931"
   transform="translate(0,104.80999)">
</g>
<g
   id="g933"
   transform="translate(0,104.80999)">
</g>
<g
   id="g935"
   transform="translate(0,104.80999)">
</g>
<g
   id="g937"
   transform="translate(0,104.80999)">
</g>
<g
   id="g939"
   transform="translate(0,104.80999)">
</g>
<g
   id="g941"
   transform="translate(0,104.80999)">
</g>
<g
   id="g943"
   transform="translate(0,104.80999)">
</g>
<g
   id="g945"
   transform="translate(0,104.80999)">
</g>
<g
   id="g947"
   transform="translate(0,104.80999)">
</g>
<g
   id="g949"
   transform="translate(0,104.80999)">
</g>
<g
   id="g951"
   transform="translate(0,104.80999)">
</g>
<g
   id="g953"
   transform="translate(0,104.80999)">
</g>
<g
   id="g955"
   transform="translate(0,104.80999)">
</g>
<g
   id="g957"
   transform="translate(0,104.80999)">
</g>
<g
   id="g959"
   transform="translate(0,104.80999)">
</g>
<g
   id="g2623"
   transform="matrix(0.99574407,0,0,0.99574407,2.3404796,-17.85692)"><g
     transform="translate(0,20.309832)"
     id="g2612"><g
       id="g927"
       transform="matrix(1.1433037,0,0,1.1433037,0.02527009,-36.436364)">
		<g
   id="g925">
			
			
			<rect
   style="fill:#ffffff;fill-opacity:1;stroke:#000000;stroke-width:13.119874;stroke-miterlimit:4;stroke-dasharray:none;stroke-opacity:1"
   id="rect917"
   height="77.650002"
   width="33.587002"
   y="92.277153"
   x="293.93457" />
			<path
   style="fill:#ffffff;fill-opacity:1;stroke:#000000;stroke-width:15.06254864;stroke-miterlimit:4;stroke-dasharray:none;stroke-opacity:1"
   d="m 51.744141,69.189453 c -10.054213,0 -20.11235,3.839198 -27.765625,11.503906 -7.678428,7.664708 -11.50586,17.716176 -11.50586,27.757811 v 444.97071 c 0,10.05421 3.828575,20.10515 11.50586,27.76757 7.653275,7.66585 17.710602,11.49414 27.763672,11.49414 H 496.69922 c 10.05309,0 20.11231,-3.82824 27.76562,-11.49414 7.6773,-7.6624 11.50391,-17.71337 11.50391,-27.76757 V 196.5 c 0,-5.00767 -0.94701,-10.10199 -2.98437,-15.02734 -2.04881,-4.91392 -4.96043,-9.18623 -8.51954,-12.73047 L 436.41602,80.691406 c -3.54768,-3.547671 -7.81703,-6.470445 -12.73438,-8.507812 -4.92878,-2.033938 -10.01967,-2.994141 -15.02734,-2.994141 z M 153.5,92.744141 h 241.42969 c 3.34873,0 6.704,1.275409 9.25586,3.839843 2.55185,2.551854 3.8164,5.897646 3.8164,9.257816 v 102.72656 c 0,3.35674 -1.26455,6.70596 -3.8164,9.25781 -2.55186,2.55186 -5.91056,3.83985 -9.25586,3.83985 H 153.5 c -3.33387,0 -6.68657,-1.28685 -9.24414,-3.83985 -2.561,-2.55185 -3.83203,-5.89764 -3.83203,-9.25781 V 105.8418 c 0,-3.35674 1.27103,-6.705962 3.83203,-9.257816 2.55757,-2.564434 5.91027,-3.839843 9.24414,-3.839843 z M 128.33594,349.54102 h 345.2832 c 4.7892,0 9.58878,2.18686 13.23828,6.58203 3.64964,4.37358 5.45899,10.10823 5.45899,15.86718 v 176.0625 c 0,5.75308 -1.80935,11.49163 -5.45899,15.86524 -3.6495,4.37358 -8.45395,6.58203 -13.23828,6.58203 h -345.2832 c -4.768,0 -9.56492,-2.20649 -13.22266,-6.58203 -3.66266,-4.37361 -5.47851,-10.10627 -5.47851,-15.86524 v -176.0625 c 0,-5.75307 1.81585,-11.4936 5.47851,-15.86718 3.65774,-4.39517 8.45466,-6.58203 13.22266,-6.58203 z M 51.744141,536.19141 c 9.508856,0 17.232421,7.71394 17.232421,17.22851 -0.0034,9.52601 -7.726994,17.23828 -17.232421,17.23828 -9.52372,0 -17.246094,-7.71456 -17.246094,-17.23828 0,-9.51571 7.718944,-17.22851 17.246094,-17.22851 z"
   transform="matrix(0.87465824,0,0,0.87465824,-6.3999923,-6.3979715)"
   id="path919"
   inkscape:connector-curvature="0" />
			
			
		</g>
	</g><path
       d="m 426.27213,356.80095 c 4.22086,0.002 7.6575,2.94972 7.6575,6.54427 0,3.60255 -3.43664,6.55342 -7.6575,6.55342 H 160.41527 c -4.22086,0 -7.6575,-2.95087 -7.6575,-6.55342 0,-3.59455 3.43664,-6.54227 7.6575,-6.54427 z"
       id="path913-3-9-3-0"
       inkscape:connector-curvature="0"
       style="fill:#ffffff;fill-opacity:1;stroke:#000000;stroke-width:7.53127432;stroke-miterlimit:4;stroke-dasharray:none;stroke-opacity:1"
       sodipodi:nodetypes="csccscc" /><path
       d="m 426.27213,409.70568 c 4.22086,0.002 7.6575,2.94972 7.6575,6.54427 0,3.60255 -3.43664,6.55342 -7.6575,6.55342 H 160.41527 c -4.22086,0 -7.6575,-2.95087 -7.6575,-6.55342 0,-3.59455 3.43664,-6.54227 7.6575,-6.54427 z"
       id="path913-3-9-3-0-6"
       inkscape:connector-curvature="0"
       style="fill:#ffffff;fill-opacity:1;stroke:#000000;stroke-width:7.53127432;stroke-miterlimit:4;stroke-dasharray:none;stroke-opacity:1"
       sodipodi:nodetypes="csccscc" /><path
       d="m 426.27213,462.61043 c 4.22086,0.002 7.6575,2.94972 7.6575,6.54427 0,3.60255 -3.43664,6.55342 -7.6575,6.55342 H 160.41527 c -4.22086,0 -7.6575,-2.95087 -7.6575,-6.55342 0,-3.59455 3.43664,-6.54227 7.6575,-6.54427 z"
       id="path913-3-9-3-0-1"
       inkscape:connector-curvature="0"
       style="fill:#ffffff;fill-opacity:1;stroke:#000000;stroke-width:7.53127432;stroke-miterlimit:4;stroke-dasharray:none;stroke-opacity:1"
       sodipodi:nodetypes="csccscc" /></g><path
     style="fill:#ffffff;fill-opacity:1;stroke:#000000;stroke-width:15.06254864;stroke-miterlimit:4;stroke-dasharray:none;stroke-opacity:1"
     inkscape:connector-curvature="0"
     id="path923-1-8"
     d="M 588.49385,394.26479 468.08339,273.85662 c -2.58386,-2.58729 -6.15555,-4.19135 -10.10909,-4.19135 -3.95354,0 -7.52522,1.60406 -10.12395,4.19135 L 327.44218,394.26479 c -3.96613,3.96612 -5.37125,10.08623 -3.09035,15.58552 2.26831,5.50272 7.60639,8.82744 13.2143,8.82744 h 33.39819 v 159.7161 c 0,3.64943 1.40169,7.31371 4.19135,10.09766 2.79538,2.79766 6.44823,4.19135 10.10909,4.19135 h 145.40651 c 3.662,0 7.32629,-1.39369 10.12052,-4.19135 2.78623,-2.78395 4.19135,-6.44823 4.19135,-10.09766 v -159.7161 h 33.39819 c 5.61934,0 10.92884,-3.32472 13.2143,-8.82744 2.28089,-5.49929 0.86777,-11.6194 -3.10178,-15.58552 z" /></g></svg>