<?xml version="1.0" encoding="UTF-8" standalone="no"?>
<!DOCTYPE svg PUBLIC "-//W3C//DTD SVG 1.1//EN" "http://www.w3.org/Graphics/SVG/1.1/DTD/svg11.dtd">
<svg x="0px" y="0px" width="600" height="600" viewBox="0 0 600 600" preserveAspectRatio="xMidYMid meet" 
     version="1.1" xmlns="http://www.w3.org/2000/svg" xmlns:xlink="http://www.w3.org/1999/xlink">
   <rect style="fill:#ffffff;fill-opacity:1;stroke:#000000;stroke-width:15;stroke-miterlimit:4;stroke-dasharray:none;stroke-opacity:1"
         height="77.650002" width="33.587002" y="77.088699" x="342.53763"/>
   <path style="fill:#ffffff;fill-opacity:1;stroke:#000000;stroke-width:15;stroke-miterlimit:4;stroke-dasharray:none;stroke-opacity:1"
         d="m 46.902109,28.521917 c -10.082292,0 -20.16852,3.84992 -27.843168,11.536033 C 11.359068,47.744065 7.5209462,57.823604 7.5209462,67.893283 V 514.1067 c 0,10.08228 3.8392688,20.1613 11.5379948,27.84512 7.674648,7.68726 17.760063,11.52623 27.841209,11.52623 h 446.1997 c 10.08117,0 20.16848,-3.83893 27.84316,-11.52623 7.69874,-7.6838 11.53604,-17.76285 11.53604,-27.84512 V 156.18801 c 0,-5.02165 -0.94965,-10.1302 -2.9927,-15.0693 -2.05453,-4.92764 -4.97429,-9.2119 -8.54334,-12.76602 L 432.64828,40.055993 c -3.55758,-3.55758 -7.83885,-6.488517 -12.76994,-8.531573 -4.94255,-2.03962 -10.04764,-3.002503 -15.0693,-3.002503 z M 148.94215,52.142388 h 242.10394 c 3.3581,0 6.72273,1.278972 9.28172,3.850566 2.55897,2.558981 3.82705,5.914118 3.82705,9.283672 V 168.29007 c 0,3.36611 -1.26808,6.7247 -3.82705,9.28367 -2.55899,2.55899 -5.92707,3.85057 -9.28172,3.85057 H 148.94215 c -3.34318,0 -6.70525,-1.29043 -9.26996,-3.85057 -2.56815,-2.55897 -3.84272,-5.91411 -3.84272,-9.28367 V 65.276626 c 0,-3.366115 1.27457,-6.724691 3.84272,-9.283672 2.56471,-2.571594 5.92678,-3.850566 9.26996,-3.850566 z M 123.7078,309.65644 h 346.24751 c 4.80257,0 9.61556,2.19297 13.27525,6.60041 3.65984,4.3858 5.47424,10.13647 5.47424,15.9115 v 176.55419 c 0,5.76916 -1.8144,11.52373 -5.47424,15.90956 -3.65969,4.3858 -8.47756,6.60041 -13.27525,6.60041 H 123.7078 c -4.7813,0 -9.59162,-2.21265 -13.25958,-6.60041 -3.67288,-4.38583 -5.49381,-10.13449 -5.49381,-15.90956 V 332.16835 c 0,-5.76914 1.82093,-11.5257 5.49381,-15.9115 3.66796,-4.40744 8.47828,-6.60041 13.25958,-6.60041 z M 46.902109,496.8281 c 9.535411,0 17.280547,7.73548 17.280547,17.27663 -0.0034,9.55261 -7.748574,17.28643 -17.280547,17.28643 -9.550318,0 -17.294259,-7.73612 -17.294259,-17.28643 0,-9.54228 7.740502,-17.27663 17.294259,-17.27663 z"/>
   <path style="fill:#ffffff;fill-opacity:1;stroke:#000000;stroke-width:7.5;stroke-miterlimit:4;stroke-dasharray:none;stroke-opacity:1"
         d="m 426.27213,356.80095 c 4.22086,0.002 7.6575,2.94972 7.6575,6.54427 0,3.60255 -3.43664,6.55342 -7.6575,6.55342 H 160.41527 c -4.22086,0 -7.6575,-2.95087 -7.6575,-6.55342 0,-3.59455 3.43664,-6.54227 7.6575,-6.54427 z"/>
   <path style="fill:#ffffff;fill-opacity:1;stroke:#000000;stroke-width:7.5;stroke-miterlimit:4;stroke-dasharray:none;stroke-opacity:1"
         d="m 426.27213,409.70568 c 4.22086,0.002 7.6575,2.94972 7.6575,6.54427 0,3.60255 -3.43664,6.55342 -7.6575,6.55342 H 160.41527 c -4.22086,0 -7.6575,-2.95087 -7.6575,-6.55342 0,-3.59455 3.43664,-6.54227 7.6575,-6.54427 z"/>
   <path style="fill:#ffffff;fill-opacity:1;stroke:#000000;stroke-width:7.5;stroke-miterlimit:4;stroke-dasharray:none;stroke-opacity:1"
         d="m 426.27213,462.61043 c 4.22086,0.002 7.6575,2.94972 7.6575,6.54427 0,3.60255 -3.43664,6.55342 -7.6575,6.55342 H 160.41527 c -4.22086,0 -7.6575,-2.95087 -7.6575,-6.55342 0,-3.59455 3.43664,-6.54227 7.6575,-6.54427 z"/>
   <path style="fill:#ffffff;fill-opacity:1;stroke:#000000;stroke-width:15;stroke-miterlimit:4;stroke-dasharray:none;stroke-opacity:1"
         d="M 588.49385,374.26479 468.08339,253.85662 c -2.58386,-2.58729 -6.15555,-4.19135 -10.10909,-4.19135 -3.95354,0 -7.52522,1.60406 -10.12395,4.19135 L 327.44218,374.26479 c -3.96613,3.96612 -5.37125,10.08623 -3.09035,15.58552 2.26831,5.50272 7.60639,8.82744 13.2143,8.82744 h 33.39819 v 159.7161 c 0,3.64943 1.40169,7.31371 4.19135,10.09766 2.79538,2.79766 6.44823,4.19135 10.10909,4.19135 h 145.40651 c 3.662,0 7.32629,-1.39369 10.12052,-4.19135 2.78623,-2.78395 4.19135,-6.44823 4.19135,-10.09766 v -159.7161 h 33.39819 c 5.61934,0 10.92884,-3.32472 13.2143,-8.82744 2.28089,-5.49929 0.86777,-11.6194 -3.10178,-15.58552 z"/>
</svg>
