<?xml version="1.0" encoding="UTF-8" standalone="no"?>
<svg
   xmlns:dc="http://purl.org/dc/elements/1.1/"
   xmlns:cc="http://creativecommons.org/ns#"
   xmlns:rdf="http://www.w3.org/1999/02/22-rdf-syntax-ns#"
   xmlns:svg="http://www.w3.org/2000/svg"
   xmlns="http://www.w3.org/2000/svg"
   xmlns:sodipodi="http://sodipodi.sourceforge.net/DTD/sodipodi-0.dtd"
   xmlns:inkscape="http://www.inkscape.org/namespaces/inkscape"
   width="600"
   height="600"
   viewBox="0 0 600 600"
   version="1.1"
   id="svg941"
   sodipodi:docname="screenshot.svg"
   inkscape:version="0.92.5 (2060ec1f9f, 2020-04-08)">
  <metadata
     id="metadata945">
    <rdf:RDF>
      <cc:Work
         rdf:about="">
        <dc:format>image/svg+xml</dc:format>
        <dc:type
           rdf:resource="http://purl.org/dc/dcmitype/StillImage" />
        <dc:title>screenshotwindow</dc:title>
      </cc:Work>
    </rdf:RDF>
  </metadata>
  <sodipodi:namedview
     pagecolor="#ffffff"
     bordercolor="#666666"
     borderopacity="1"
     objecttolerance="10"
     gridtolerance="10"
     guidetolerance="10"
     inkscape:pageopacity="0"
     inkscape:pageshadow="2"
     inkscape:window-width="1848"
     inkscape:window-height="1016"
     id="namedview943"
     showgrid="false"
     inkscape:pagecheckerboard="true"
     inkscape:zoom="1.0892564"
     inkscape:cx="348.71136"
     inkscape:cy="295.28375"
     inkscape:window-x="1920"
     inkscape:window-y="27"
     inkscape:window-maximized="1"
     inkscape:current-layer="svg941" />
  <!-- Generator: Sketch 3.6.1 (26313) - http://www.bohemiancoding.com/sketch -->
  <title
     id="title927">screenshotwindow</title>
  <desc
     id="desc929">Created with Sketch.</desc>
  <defs
     id="defs931" />
  <g
     id="bundle-os-x-cursors"
     transform="matrix(28.25,0,0,28.25,-10.75,59.875)"
     style="fill:#ffffff;fill-opacity:1;fill-rule:evenodd;stroke:#000012;stroke-width:0.53097343;stroke-miterlimit:4;stroke-dasharray:none;stroke-opacity:1">
    <g
       id="Made-with-💕by-Azendoo-design-team---@azendoo"
       transform="translate(-246,-254)"
       style="fill:#ffffff;fill-opacity:1;stroke:#000012;stroke-width:0.53097343;stroke-miterlimit:4;stroke-dasharray:none;stroke-opacity:1">
      <g
         id="screenshotwindow"
         transform="translate(246,254)"
         style="fill:#ffffff;fill-opacity:1;stroke:#000012;stroke-width:0.53097343;stroke-miterlimit:4;stroke-dasharray:none;stroke-opacity:1">
        <path
           d="M 11,14 C 8.238,14 6,11.762 6,9 6,6.238 8.238,4 11,4 c 2.762,0 5,2.238 5,5 0,2.762 -2.238,5 -5,5 M 18.5,4 h -1 C 16.5,4 15.816,3.132 15.5,2.5 15,1.5 14.5,1 13,1 H 11 9 C 7.5,1 7,1.5 6.5,2.5 6.184,3.132 5.5,4 4.5,4 h -1 C 2.119,4 1,5.119 1,6.5 v 7 C 1,14.881 2.119,16 3.5,16 h 15 c 1.381,0 2.5,-1.119 2.5,-2.5 v -7 C 21,5.119 19.881,4 18.5,4"
           id="path934"
           inkscape:connector-curvature="0"
           style="fill:#ffffff;fill-opacity:1;stroke:#000012;stroke-width:0.53097343;stroke-miterlimit:4;stroke-dasharray:none;stroke-opacity:1" />
        <path
           d="m 14,9 c 0,1.656 -1.344,3 -3,3 C 9.344,12 8,10.656 8,9 8,7.344 9.344,6 11,6 c 1.656,0 3,1.344 3,3"
           id="path936"
           inkscape:connector-curvature="0"
           style="fill:#ffffff;fill-opacity:1;stroke:#000012;stroke-width:0.53097343;stroke-miterlimit:4;stroke-dasharray:none;stroke-opacity:1" />
      </g>
    </g>
  </g>
</svg>
