<?xml version="1.0" encoding="UTF-8" standalone="no"?>
<!DOCTYPE svg PUBLIC "-//W3C//DTD SVG 1.1//EN" "http://www.w3.org/Graphics/SVG/1.1/DTD/svg11.dtd">
<svg x="0px" y="0px" width="600" height="600" viewBox="0 0 600 600" preserveAspectRatio="xMidYMid meet" 
     version="1.1" xmlns="http://www.w3.org/2000/svg" xmlns:xlink="http://www.w3.org/1999/xlink">
   <g transform="translate(9.2654885,503.10951)">
      <path style="fill:#ffffff;fill-opacity:1;stroke:#000000;stroke-width:15;stroke-miterlimit:4;stroke-dasharray:none;stroke-opacity:1"
            d="m 290.73451,-47.734513 c -78.0265,0 -141.25,-63.223497 -141.25,-141.249997 0,-78.0265 63.2235,-141.25 141.25,-141.25 78.0265,0 141.25,63.2235 141.25,141.25 0,78.0265 -63.2235,141.249997 -141.25,141.249997 m 211.875,-282.499997 h -28.25 c -28.25,0 -47.573,-24.521 -56.5,-42.375 -14.125,-28.25 -28.25,-42.375 -70.625,-42.375 h -56.5 -56.5 c -42.375,0 -56.5,14.125 -70.625,42.375 -8.927,17.854 -28.25,42.375 -56.5,42.375 H 78.859513 c -39.01325,0 -70.6249999,31.61175 -70.6249999,70.625 v 197.749997 c 0,39.01325 31.6117499,70.6249999 70.6249999,70.6249999 H 502.60951 c 39.01325,0 70.625,-31.6117499 70.625,-70.6249999 V -259.60951 c 0,-39.01325 -31.61175,-70.625 -70.625,-70.625 Z"/>
      <path style="fill:#ffffff;fill-opacity:1;stroke:#000000;stroke-width:15;stroke-miterlimit:4;stroke-dasharray:none;stroke-opacity:1"
       d="m 375.48451,-188.98451 c 0,46.782 -37.968,84.75 -84.75,84.75 -46.782,0 -84.75,-37.968 -84.75,-84.75 0,-46.782 37.968,-84.75 84.75,-84.75 46.782,0 84.75,37.968 84.75,84.75 Z"/>
  </g>
</svg>
